# xmcd
#
# Track frame offsets: 
#        150
#        13690
#        23295
#
# Disc length: 505 seconds
#
# Revision: 0
# Processed by: cddbd v1.4PL0 Copyright (c) Steve Scherf et al.
# Submitted via: ExactAudioCopy v0.90a11
#
DISCID=1101f703
DTITLE=Chris Isaak - Think Of Tomorrow (Single)
DYEAR=1900
DGENRE=
TTITLE0=Think Of Tomorrow
TTITLE1=Eyes Of Texas
TTITLE2=So Lovely Is The Night
EXTD=
EXTT0=
EXTT1=
EXTT2=
PLAYORDER=
